<?xml version="1.0" standalone="no"?>
<!DOCTYPE svg PUBLIC "-//W3C//DTD SVG 20010904//EN"
 "http://www.w3.org/TR/2001/REC-SVG-20010904/DTD/svg10.dtd">
<svg version="1.0" xmlns="http://www.w3.org/2000/svg"
 width="16.000000pt" height="16.000000pt" viewBox="0 0 16.000000 16.000000"
 preserveAspectRatio="xMidYMid meet">
<metadata>
Created by potrace 1.11, written by Peter Selinger 2001-2013
</metadata>
<g transform="translate(0.000000,16.000000) scale(0.000645,-0.000645)"
fill="#000000" stroke="none">
<path d="M12405 24066 c-16 -7 -63 -45 -104 -85 -41 -39 -78 -71 -83 -71 -5 0
-14 -13 -19 -30 -8 -22 -17 -30 -35 -30 -13 0 -24 5 -24 10 0 6 -9 10 -20 10
-15 0 -20 -7 -20 -25 0 -15 -9 -30 -22 -39 -28 -17 -128 -29 -128 -16 0 17
-47 11 -83 -10 -28 -17 -50 -20 -125 -19 -50 1 -95 -2 -101 -5 -13 -9 -139 14
-173 31 -14 7 -57 13 -95 14 -45 1 -74 6 -85 16 -17 16 -31 12 -153 -38 -78
-32 -101 -39 -128 -39 -16 0 -44 -9 -62 -20 -29 -18 -46 -20 -142 -17 -91 4
-115 1 -150 -15 -39 -18 -52 -19 -145 -9 -110 10 -134 8 -283 -32 -122 -33
-170 -62 -228 -138 -58 -78 -88 -109 -104 -109 -7 0 -21 -8 -31 -18 -32 -32
-132 -74 -163 -67 -31 7 -79 50 -79 71 0 22 -24 16 -48 -11 -12 -14 -32 -25
-44 -25 -13 0 -54 -21 -92 -46 -39 -25 -84 -48 -100 -51 -18 -4 -56 -29 -89
-59 -35 -32 -74 -58 -100 -66 -23 -7 -52 -25 -64 -39 -38 -44 -88 -63 -137
-50 -76 19 -147 31 -187 31 -21 0 -62 11 -89 24 l-51 24 -25 -22 c-27 -22 -29
-38 -19 -111 10 -67 -40 -151 -113 -189 -18 -9 -32 -21 -32 -26 0 -35 -143
-150 -186 -150 -15 0 -24 -6 -24 -16 0 -17 -28 -60 -67 -102 -14 -15 -34 -44
-45 -65 -42 -84 -176 -246 -202 -247 -5 0 -34 -17 -65 -37 -31 -21 -73 -40
-95 -43 -21 -3 -42 -12 -46 -20 -46 -99 -53 -107 -130 -163 -44 -32 -124 -92
-177 -134 -148 -115 -170 -126 -262 -121 l-76 3 -11 -34 c-15 -46 -77 -90
-126 -91 -42 0 -147 -46 -155 -67 -13 -34 -160 -83 -249 -83 l-63 0 -3 -52
c-3 -47 -6 -54 -33 -67 -16 -8 -24 -16 -17 -19 24 -8 13 -40 -18 -51 -16 -5
-30 -12 -30 -15 0 -3 14 -21 31 -40 19 -23 29 -44 27 -58 -2 -16 5 -28 24 -40
15 -10 30 -28 34 -42 8 -32 -31 -120 -67 -151 -16 -13 -35 -41 -42 -61 -8 -27
-19 -40 -37 -44 -21 -5 -25 -12 -25 -45 0 -31 -9 -53 -38 -92 -22 -29 -41 -53
-44 -53 -3 0 -3 15 -1 32 3 18 1 45 -4 61 -8 20 -6 33 5 50 14 22 13 25 -18
50 -19 15 -42 27 -53 27 -36 0 -90 -81 -117 -172 -9 -32 -20 -60 -25 -63 -5
-3 -12 -27 -16 -52 -4 -28 -16 -57 -30 -72 -13 -14 -37 -54 -54 -88 -34 -73
-122 -168 -164 -179 -16 -4 -43 -2 -61 5 -56 20 -82 13 -166 -44 -53 -36 -90
-55 -110 -55 -32 0 -129 45 -129 59 0 23 -33 17 -74 -15 -48 -36 -65 -40 -99
-23 -45 25 -162 17 -203 -13 -7 -5 -15 -30 -18 -56 -9 -67 -38 -185 -50 -200
-6 -8 -20 -11 -38 -7 -42 10 -86 -3 -113 -33 -39 -42 -78 -132 -86 -197 -9
-76 -40 -164 -64 -181 -10 -8 -28 -14 -40 -14 -12 0 -30 -7 -41 -15 -19 -15
-18 -16 6 -33 78 -55 246 -195 261 -219 14 -20 19 -47 19 -95 0 -37 6 -82 14
-100 8 -18 24 -74 36 -124 17 -71 20 -105 15 -157 l-7 -65 41 -27 c22 -15 43
-36 46 -47 4 -10 4 -74 1 -142 l-6 -123 25 -11 c18 -9 25 -19 25 -41 0 -16 -5
-33 -11 -37 -8 -4 -9 -22 -4 -53 4 -25 8 -62 9 -82 2 -48 21 -69 61 -69 54 0
70 -28 70 -124 0 -44 -4 -118 -8 -162 l-9 -81 35 -35 c45 -46 50 -73 38 -215
-41 -462 -41 -1033 -1 -1563 46 -590 188 -1438 333 -1984 30 -115 32 -130 32
-306 1 -154 4 -191 18 -219 9 -19 17 -47 17 -62 0 -16 9 -37 21 -48 13 -12 34
-63 55 -137 36 -126 50 -149 95 -159 19 -4 39 -21 58 -49 28 -40 62 -72 133
-126 79 -60 94 -81 113 -165 10 -45 29 -97 44 -120 20 -31 32 -71 49 -170 75
-428 210 -921 396 -1441 27 -76 38 -127 45 -210 10 -114 37 -204 77 -259 12
-16 33 -55 48 -86 14 -31 37 -68 50 -83 13 -16 29 -47 35 -70 7 -22 25 -59 41
-81 15 -23 30 -54 32 -70 2 -23 11 -34 40 -47 24 -11 45 -32 57 -55 11 -21 25
-45 32 -53 9 -12 10 -11 4 5 -4 11 -11 47 -15 80 -5 33 -18 92 -30 130 -27 89
-37 130 -59 235 -9 47 -23 98 -29 113 -7 16 -12 32 -12 36 0 16 -90 281 -105
312 -27 51 -65 251 -77 399 -7 96 -7 171 1 260 23 260 31 670 22 1105 -8 394
-13 502 -27 522 -8 12 -14 45 -14 73 0 28 -4 58 -9 68 -12 22 -36 183 -36 243
0 32 6 54 19 68 14 15 17 29 12 55 -9 48 8 113 37 140 14 13 29 44 37 77 7 29
21 67 32 84 10 16 18 43 18 60 0 46 29 111 70 155 20 22 41 40 46 40 12 0 84
72 84 84 0 4 13 19 30 33 17 13 30 31 30 39 0 8 10 14 24 14 36 0 48 23 62
122 7 50 18 94 24 98 8 5 9 22 5 51 -3 24 -1 73 6 109 17 98 15 147 -10 235
-16 57 -21 94 -17 129 4 35 1 55 -8 65 -8 10 -18 63 -24 132 -10 111 -29 175
-59 207 -15 15 -16 110 -4 186 8 49 -4 116 -21 116 -19 0 4 283 27 319 3 6 1
18 -4 28 -5 10 -19 41 -31 68 -12 28 -28 63 -36 78 -16 34 -20 207 -4 207 6 0
10 9 10 20 0 11 7 20 15 20 11 0 15 12 15 50 0 28 4 50 8 50 4 0 14 16 21 35
7 19 17 35 22 35 5 0 9 21 9 48 0 28 8 62 20 85 11 20 20 53 20 72 0 19 5 35
10 35 6 0 10 5 10 11 0 16 26 39 44 39 9 0 16 5 16 10 0 6 7 10 15 10 9 0 18
7 21 15 4 8 27 20 51 27 25 6 64 25 87 43 41 31 66 41 134 52 18 3 35 9 38 14
3 5 15 9 26 9 40 0 98 23 103 42 4 11 16 18 33 18 15 1 45 9 67 20 22 11 46
19 53 20 6 0 12 7 12 15 0 8 9 15 19 15 11 0 21 5 23 11 2 7 47 12 123 15 65
2 131 8 147 15 16 6 43 9 61 6 53 -8 177 31 177 57 0 8 14 17 33 21 45 10 127
46 127 56 0 4 17 11 38 15 20 3 47 12 59 20 12 8 33 14 45 14 13 0 32 7 42 15
12 9 43 15 80 15 34 0 83 7 111 15 27 9 73 15 102 14 38 -2 58 3 72 15 13 12
43 19 98 23 67 5 81 9 100 30 18 20 39 28 110 39 106 16 133 23 153 39 8 6 47
18 87 25 60 11 106 11 270 0 109 -8 256 -13 327 -12 112 2 134 0 171 -18 23
-11 69 -26 101 -32 33 -7 82 -26 109 -44 28 -18 70 -35 95 -39 24 -4 60 -18
80 -30 19 -13 51 -26 70 -30 19 -4 46 -13 60 -20 14 -7 47 -17 73 -24 66 -16
244 -105 282 -140 16 -16 41 -32 53 -36 38 -11 151 -66 158 -76 3 -5 16 -9 30
-9 25 0 34 -24 12 -33 -8 -3 -6 -6 5 -6 9 -1 17 -5 17 -10 0 -5 10 -13 23 -16
12 -4 52 -27 89 -51 47 -32 76 -44 102 -44 20 0 65 -9 99 -21 34 -12 78 -21
98 -21 27 1 42 -6 58 -24 11 -13 30 -24 41 -24 11 0 34 -9 52 -20 26 -16 43
-19 76 -14 32 5 47 2 60 -9 12 -11 22 -13 32 -7 24 15 55 11 78 -10 22 -20 52
-27 52 -11 0 4 27 16 60 25 59 17 61 17 90 -4 20 -14 30 -30 30 -46 0 -30 25
-58 42 -48 7 5 9 2 5 -7 -3 -8 -31 -72 -62 -143 -121 -276 -201 -578 -225
-846 -19 -206 4 -419 67 -613 19 -60 36 -107 38 -105 2 2 -7 45 -20 95 -84
324 -42 747 125 1243 53 157 153 407 171 425 8 8 259 16 259 7 0 -1 -15 -71
-34 -155 -79 -345 -137 -691 -168 -997 -19 -189 -16 -560 5 -699 68 -434 269
-636 594 -594 49 7 115 21 148 32 33 11 47 18 32 16 -164 -31 -263 -24 -363
25 -178 86 -281 290 -329 645 -20 145 -23 513 -6 720 23 274 81 689 134 950
l12 60 35 -3 c70 -8 141 -43 194 -97 72 -74 149 -162 191 -218 l35 -48 10
-197 c22 -431 69 -733 159 -1000 102 -305 259 -522 448 -619 118 -60 206 -77
370 -71 l133 5 -4 -31 c-3 -17 -7 -71 -10 -121 l-5 -90 14 50 c8 28 20 85 27
129 6 43 17 79 22 81 159 40 384 143 564 256 l113 71 83 -56 c46 -31 128 -79
182 -107 55 -27 91 -44 80 -37 -153 105 -209 151 -312 253 -158 156 -255 288
-398 538 l-27 47 64 0 c35 0 84 -6 110 -14 44 -13 46 -13 51 8 10 41 93 61
132 31 10 -8 28 -15 40 -15 12 0 41 -10 65 -23 24 -13 70 -32 102 -42 41 -14
63 -28 74 -46 14 -24 26 -29 93 -38 93 -14 115 -7 162 49 l34 42 119 -20 c66
-12 121 -19 123 -17 2 2 -35 16 -82 31 -48 14 -89 30 -92 35 -10 18 101 56
181 62 314 26 448 49 599 106 73 27 91 26 145 -4 l44 -26 56 44 c115 89 152
107 218 107 84 0 127 -29 131 -88 3 -34 9 -46 35 -64 48 -34 54 -41 71 -93 13
-38 16 -74 12 -179 -3 -72 -10 -166 -16 -210 -16 -111 -19 -160 -26 -423 -5
-198 -4 -244 11 -310 30 -137 123 -403 166 -473 5 -8 14 -26 19 -40 6 -14 14
-34 19 -45 45 -103 50 -144 62 -470 12 -346 13 -322 -10 -388 -44 -126 -49
-474 -20 -1405 6 -227 6 -425 -1 -624 -5 -160 -8 -293 -5 -296 3 -3 5 3 5 13
0 29 124 580 186 830 80 320 122 465 148 510 13 22 29 65 36 95 12 55 45 124
87 189 18 27 23 48 23 100 0 77 6 89 98 178 68 67 99 84 113 62 7 -11 9 -11 9
3 0 9 24 41 53 71 53 57 99 137 137 240 12 31 37 80 55 107 19 28 32 57 29 65
-11 27 15 55 51 55 18 0 37 5 41 11 12 19 30 -28 53 -136 12 -54 24 -101 26
-104 9 -8 37 74 68 194 16 66 33 123 36 127 4 4 49 12 101 18 84 9 98 14 124
40 l29 29 -39 7 c-21 4 -45 13 -52 21 -8 8 -18 50 -23 95 -10 88 -14 98 -34
98 -10 0 -14 21 -17 78 -4 82 20 282 34 282 4 0 21 13 36 29 28 30 28 30 19
113 -7 59 -6 83 2 86 15 5 13 48 -4 95 -11 33 -11 64 6 225 30 290 27 272 54
272 13 0 35 -5 48 -11 18 -8 30 -8 46 0 18 10 20 18 16 54 -12 91 -72 294 -88
300 -6 2 -12 22 -12 47 0 36 6 47 33 70 17 14 32 32 32 40 0 7 9 28 21 46 19
31 20 46 17 180 -3 125 -1 147 13 157 9 7 19 22 23 35 6 17 3 22 -10 22 -13 0
-15 6 -10 31 3 17 6 36 6 41 0 5 11 8 24 6 19 -2 30 6 50 35 14 21 26 40 26
42 0 3 -13 11 -30 20 -16 9 -30 22 -30 31 0 8 -13 20 -29 25 -21 7 -33 22 -45
52 -20 54 -20 67 2 67 15 0 14 3 -4 18 -17 13 -25 40 -39 122 -9 58 -21 109
-26 115 -16 16 -10 103 9 132 49 80 64 93 105 93 37 0 38 1 26 19 -63 85 -83
106 -96 103 -8 -2 -25 4 -39 13 -23 15 -24 20 -24 120 0 63 4 105 10 105 6 0
10 5 10 10 0 6 -7 10 -15 10 -20 0 -20 49 0 56 9 4 17 27 21 66 4 35 14 67 24
76 18 18 70 109 70 123 0 13 -42 49 -58 49 -17 0 -52 -37 -52 -55 0 -20 -40
-26 -41 -7 0 10 -6 70 -13 135 l-12 117 51 -1 c63 -2 92 7 100 32 7 21 31 26
38 7 11 -26 6 18 -8 85 -13 64 -13 72 6 122 13 34 31 62 50 75 17 13 29 31 29
43 0 30 10 43 40 52 14 4 41 21 62 36 34 28 41 29 125 28 105 -2 161 12 191
46 26 30 26 28 7 93 -9 30 -22 52 -30 52 -7 0 -15 5 -17 11 -2 7 -40 14 -88
18 -72 5 -85 9 -88 24 -4 21 29 57 52 57 9 0 18 11 22 25 3 13 15 27 25 30 10
4 19 10 19 14 0 24 40 49 87 56 45 6 52 4 56 -12 3 -10 5 5 6 33 0 27 8 59 16
70 8 10 15 29 15 41 0 19 7 23 48 29 44 6 49 9 59 42 8 26 8 40 1 50 -6 7 -8
33 -5 62 5 44 3 52 -23 80 -33 35 -71 39 -100 10 -27 -27 -40 -25 -40 5 0 18
-5 25 -20 25 -18 0 -20 7 -20 56 0 40 5 60 16 68 21 16 9 42 -26 56 -16 7 -35
25 -42 41 -7 16 -16 29 -19 29 -4 0 -10 17 -14 38 -3 20 -9 47 -12 60 -4 18
-1 22 18 22 22 1 23 2 7 14 -14 10 -18 28 -18 73 0 52 -3 61 -20 66 -20 5 -29
47 -10 47 12 0 13 34 1 58 -5 9 -14 29 -21 43 -7 16 -23 29 -39 32 -39 9 -69
94 -42 122 10 11 15 51 13 101 -2 41 -61 104 -96 104 -14 0 -26 5 -26 10 0 6
-10 8 -24 4 -29 -7 -66 25 -66 56 0 11 -4 20 -9 20 -19 0 -34 110 -22 168 16
82 14 244 -4 278 -8 16 -15 54 -15 85 0 69 -15 100 -81 164 -42 42 -50 54 -45
77 8 38 -1 56 -38 75 -17 9 -37 24 -44 34 -7 11 -20 19 -28 19 -12 0 -15 11
-14 48 3 66 2 70 -20 77 -25 8 -50 -10 -50 -36 0 -54 -42 -89 -106 -89 -31 0
-37 4 -51 38 -8 20 -18 53 -20 73 -5 33 -3 37 22 43 15 4 33 2 39 -3 18 -15
38 55 42 149 1 41 7 95 13 120 6 25 11 62 11 82 0 20 6 43 13 50 6 7 13 34 14
61 2 36 -1 47 -13 47 -8 0 -27 12 -42 27 -19 19 -39 28 -66 29 -24 1 -43 9
-48 18 -18 33 -64 66 -89 66 l-27 0 15 65 c13 58 13 67 -1 87 -9 12 -17 36
-18 53 -1 19 -3 11 -7 -20 l-6 -50 -74 -3 c-42 -2 -79 2 -85 8 -5 5 -20 10
-31 10 -12 0 -30 9 -39 19 -10 10 -33 22 -52 25 -19 4 -34 13 -34 20 0 7 -16
24 -35 37 -19 13 -35 32 -35 42 0 9 -4 17 -10 17 -13 0 -40 65 -40 96 0 12 -4
25 -9 29 -10 6 -41 -21 -41 -36 0 -5 -11 -9 -25 -9 -14 0 -25 5 -25 12 0 22
-45 77 -65 80 -22 3 -32 50 -21 94 7 24 36 34 36 12 0 -7 7 -3 15 9 23 33 4
75 -40 89 -19 6 -35 7 -35 3 0 -11 -61 -12 -77 -1 -6 4 -15 20 -19 36 -8 35
-24 16 -24 -30 0 -20 -11 -43 -35 -70 -19 -21 -35 -42 -35 -46 0 -21 -23 -4
-36 27 -21 51 -18 81 12 104 25 20 27 28 32 115 5 93 4 95 -17 89 -25 -7 -51
12 -51 38 0 16 -8 19 -49 19 -50 0 -61 -9 -61 -49 0 -10 -9 -28 -20 -41 -11
-13 -20 -29 -20 -37 0 -7 -7 -16 -15 -19 -8 -3 -17 -14 -20 -24 -8 -25 -108
-35 -196 -19 l-69 12 0 73 c0 67 -1 72 -20 67 -11 -3 -20 0 -20 6 0 6 -11 11
-25 11 -32 0 -49 39 -41 93 4 20 3 37 -2 37 -17 0 -52 42 -52 63 0 31 63 97
93 97 13 0 36 11 51 25 14 13 47 33 73 45 26 11 56 30 66 41 19 20 19 21 -12
53 -17 17 -31 37 -31 43 0 17 -57 33 -114 33 -29 0 -56 4 -61 8 -6 5 -29 14
-52 20 -51 15 -63 43 -63 148 0 40 -3 80 -6 89 -7 18 -84 55 -115 55 -11 0
-30 6 -42 14 -12 7 -56 22 -97 32 -41 10 -82 23 -90 29 -8 7 -35 20 -60 29
-25 10 -52 24 -60 31 -27 23 -55 26 -73 8 -9 -10 -30 -33 -46 -50 -60 -65
-106 -35 -113 72 -3 44 -9 71 -19 79 -8 6 -25 28 -38 49 -18 29 -22 46 -17 73
l7 35 -37 -16 c-45 -19 -74 -50 -74 -81 0 -12 -6 -29 -13 -36 -8 -8 -13 -43
-13 -96 -1 -98 -18 -131 -79 -147 -30 -7 -44 -5 -74 10 -42 23 -49 49 -27 97
38 84 43 103 33 132 -9 27 -11 28 -61 22 -95 -11 -120 -19 -151 -49 -16 -17
-24 -28 -17 -23 7 4 12 2 12 -7 0 -33 -147 -62 -213 -42 -83 24 -85 124 -6
220 56 67 50 81 -43 100 -17 3 -37 20 -52 42 -27 39 -88 68 -209 99 -52 14
-62 14 -107 -1 -62 -21 -56 -39 10 -30 35 5 56 2 78 -9 17 -9 45 -16 62 -16
39 0 47 -19 30 -71 -10 -31 -18 -39 -37 -39 -12 0 -23 5 -23 10 0 16 -62 50
-90 50 -14 0 -38 7 -55 16 -44 23 -231 38 -308 25 -34 -5 -81 -8 -104 -4 -31
4 -53 0 -87 -17 -25 -12 -49 -26 -52 -32 -27 -43 -305 -88 -404 -67 -70 16
-304 -24 -338 -58 -7 -7 -18 -13 -24 -13 -6 0 -8 -13 -4 -33 9 -46 -11 -59
-121 -81 -127 -26 -203 -11 -203 40 0 19 8 28 35 40 19 7 44 14 55 14 12 0 32
11 46 25 24 24 24 26 9 62 -9 21 -23 44 -32 51 -28 20 -149 14 -268 -14 -60
-14 -130 -29 -154 -34 -28 -4 -50 -16 -61 -30 -17 -22 -21 -23 -132 -18 -78 4
-126 11 -148 22 -18 9 -39 16 -47 16 -7 0 -13 5 -13 10 0 6 -5 10 -11 10 -7 0
-22 10 -34 23 -36 37 -64 57 -80 57 -8 0 -15 5 -15 10 0 6 -9 10 -19 10 -11 0
-28 14 -40 34 -32 51 -42 56 -76 42z m3679 -418 c12 -45 3 -128 -13 -128 -4 0
-7 34 -7 75 1 75 8 95 20 53z m-2598 -7370 c68 -72 309 -231 469 -310 64 -32
135 -80 168 -113 11 -12 42 -61 69 -110 176 -317 274 -652 302 -1024 l4 -64
-101 6 c-56 4 -129 14 -162 23 -431 116 -705 587 -800 1379 -8 66 -17 165 -20
220 l-6 100 24 -38 c14 -21 37 -52 53 -69z m946 -619 c22 -11 62 -41 88 -65
26 -24 60 -47 76 -50 22 -4 39 -21 69 -67 118 -183 323 -415 483 -546 l64 -52
-114 -53 c-173 -82 -362 -140 -513 -158 l-30 -4 -1 181 c-2 266 -40 474 -133
721 -23 59 -41 109 -41 111 0 6 12 2 52 -18z"/>
<path d="M15467 23773 c-4 -3 -7 -11 -7 -17 0 -6 5 -5 12 2 6 6 9 14 7 17 -3
3 -9 2 -12 -2z"/>
<path d="M15441 23709 c-1 -25 35 -66 65 -73 41 -11 39 0 -4 24 -22 13 -45 32
-50 44 -8 16 -11 17 -11 5z"/>
<path d="M17760 22503 c0 -10 4 -24 9 -32 7 -11 11 -9 21 9 10 18 9 24 -1 31
-21 13 -29 11 -29 -8z"/>
<path d="M4972 17530 c0 -14 2 -19 5 -12 2 6 2 18 0 25 -3 6 -5 1 -5 -13z"/>
<path d="M19138 17449 c-10 -5 -18 -14 -18 -19 0 -25 -36 -50 -75 -51 l-40 -1
38 -10 c34 -9 39 -8 58 16 11 14 29 26 40 26 14 0 19 7 19 25 0 28 1 28 -22
14z"/>
<path d="M5331 13044 c0 -11 3 -14 6 -6 3 7 2 16 -1 19 -3 4 -6 -2 -5 -13z"/>
<path d="M17372 11700 c0 -14 2 -19 5 -12 2 6 2 18 0 25 -3 6 -5 1 -5 -13z"/>
<path d="M17491 10554 c0 -11 3 -14 6 -6 3 7 2 16 -1 19 -3 4 -6 -2 -5 -13z"/>
<path d="M17001 9027 c-94 -284 -207 -603 -309 -877 -70 -184 -70 -185 -198
-365 -294 -414 -698 -959 -1040 -1400 -151 -196 -167 -212 -221 -239 -165 -80
-340 -209 -430 -316 -29 -34 -53 -60 -53 -57 0 2 25 76 56 163 109 307 157
484 173 642 21 199 -45 377 -194 527 -110 111 -216 156 -365 154 -81 0 -143
-15 -320 -78 -143 -50 -237 -65 -360 -58 -174 11 -324 67 -575 217 -175 104
-233 130 -365 165 -183 48 -230 36 -443 -107 -49 -33 -106 -66 -129 -74 -48
-17 -122 -18 -186 -3 -81 19 -281 123 -362 189 -93 76 -181 126 -284 162 -84
30 -116 34 -116 18 0 -5 -13 -10 -28 -10 -51 0 -144 -57 -252 -154 -58 -53
-127 -108 -155 -123 -46 -26 -58 -28 -145 -26 -52 0 -122 6 -155 11 -491 86
-548 94 -690 99 -212 8 -305 -19 -399 -114 -99 -101 -144 -249 -161 -528 -10
-164 22 -452 83 -775 l19 -95 6 140 c14 284 87 504 247 743 112 168 195 211
365 191 90 -11 187 -36 451 -115 258 -77 339 -94 470 -94 137 0 219 20 393 94
161 69 220 86 298 86 81 0 115 -15 192 -84 115 -102 236 -144 364 -126 81 12
143 39 226 97 144 103 211 100 548 -28 378 -143 437 -149 853 -85 369 56 495
70 591 63 174 -12 237 -77 309 -317 43 -146 49 -233 35 -535 l-12 -260 -35
-55 c-47 -74 -139 -258 -171 -345 -14 -38 -42 -135 -61 -214 -52 -213 -106
-314 -271 -511 -121 -143 -343 -357 -422 -406 -250 -157 -750 -271 -1373 -314
-188 -13 -646 -13 -825 0 -449 33 -820 119 -867 200 -20 35 -47 49 -58 30 -11
-18 -62 20 -156 116 -148 150 -253 308 -544 814 -367 638 -501 813 -765 999
-388 273 -695 578 -1031 1024 -211 279 -404 588 -571 912 -56 110 -101 187
-98 170 98 -613 297 -1163 611 -1686 166 -276 318 -486 679 -934 287 -357 340
-426 440 -576 129 -193 232 -417 264 -571 10 -46 34 -89 133 -235 616 -909
1050 -1403 1373 -1563 227 -111 765 -200 1214 -200 456 0 836 85 1042 232 47
33 166 136 359 307 459 410 872 908 1233 1487 42 67 169 281 283 475 263 450
308 519 551 840 313 415 410 567 573 902 219 450 440 1088 670 1931 90 331
182 697 178 702 -2 2 -41 -110 -87 -249z"/>
<path d="M11635 5311 c0 -53 3 -101 8 -108 4 -6 21 -15 38 -18 17 -4 51 -27
76 -51 24 -24 48 -44 53 -44 5 0 27 -17 47 -37 26 -25 51 -39 78 -43 69 -10
105 4 160 62 50 53 97 75 218 102 l28 7 -23 42 c-28 51 -56 76 -85 77 -13 0
-23 4 -23 8 0 10 -154 48 -250 62 -36 5 -117 13 -180 16 -63 4 -122 10 -130
14 -13 7 -15 -6 -15 -89z"/>
</g>
</svg>
